<svg class="github" width="18" height="18" fill="none" xmlns="http://www.w3.org/2000/svg"><path
        fill-rule="evenodd"
        clip-rule="evenodd"
        d="M17.9 9.2a8.94 8.94 0 0 1-6.4 8.6.392.392 0 0 1-.4-.4v-3a1.58 1.58 0 0 0-.5-1.2 3.734 3.734 0 0 0 3.9-3.4 4.244 4.244 0 0 0-.9-3.5c.29-.79.217-1.669-.2-2.4a7.24 7.24 0 0 0-2.4.9c-1.44-.4-2.96-.4-4.4 0a4.62 4.62 0 0 0-2.3-.9h-.1A2.75 2.75 0 0 0 4 6.3a4.075 4.075 0 0 0-.9 3.5A3.81 3.81 0 0 0 7 13.2c-.198.148-.34.36-.4.6a2.638 2.638 0 0 0-.1.7 1.943 1.943 0 0 1-2.2-.5c-.5-.8-.9-1.2-1.4-1.3-.5-.1-.6.2-.6.2.079.26.26.476.5.6.387.216.674.575.8 1a1.827 1.827 0 0 0 1.2 1.2 3.915 3.915 0 0 0 1.9 0v1.7a.297.297 0 0 1-.4.3A8.82 8.82 0 0 1 0 9.2a8.95 8.95 0 0 1 17.9 0Z"
        fill="currentColor"></path></svg>