<svg width="108px" height="45px" viewBox="0 0 108 45" version="1.1" xmlns="http://www.w3.org/2000/svg" xmlns:xlink="http://www.w3.org/1999/xlink">
    <desc>Created with Sketch.</desc>
    <defs/>
    <g id="design" stroke="none" stroke-width="1" fill="none" fill-rule="evenodd">
        <g id="L-Desktop---designC---Kontakt" transform="translate(-42.000000, -240.000000)" fill="#000000">
            <g id="Logo-Tegonal-Schwarz" transform="translate(42.000000, 240.000000)">
                <g id="Page-1">
                    <path d="M3.7685121,38.8755692 C2.42986242,38.8755692 2.01093248,38.5044923 2.01093248,37.1004923 L2.01093248,31.8188769 L5.18076688,31.8188769 L5.18076688,30.0694154 L2.01093248,30.0694154 L2.01093248,25.9051846 L0.000206369427,25.9065692 L0.00433375796,37.1268 C0.00433375796,39.5118 0.809174522,40.6042615 3.75475414,40.6042615 L5.22410446,40.6042615 L5.22410446,38.8755692 L3.7685121,38.8755692 Z" id="Fill-1" fill="#c0d72f"/>
                    <path d="M22.6007541,38.7301846 C20.718665,38.7301846 19.5815694,37.2320308 19.5815694,35.0457231 C19.5815694,32.9009538 20.6154803,31.5689538 22.4349707,31.5689538 C24.0487796,31.5689538 25.3929325,32.3602615 25.3929325,35.1080308 C25.3929325,37.8558 24.0487796,38.7301846 22.6007541,38.7301846 Z M26.6751745,30.0694154 C25.848321,30.0694154 25.5181299,30.5069538 25.5181299,31.1314154 L25.5181299,31.4651077 L25.4761682,31.4651077 C25.4761682,31.4651077 24.7318624,29.8194923 22.1254166,29.8194923 C19.2080408,29.8194923 17.532321,32.0674154 17.532321,35.0865692 C17.532321,38.1258 19.3119134,40.4782615 22.2079643,40.4782615 C23.7385376,40.4782615 24.7112255,39.8967231 25.3310217,38.8755692 L25.3729834,38.8755692 C25.3729834,38.8755692 25.3310217,39.2085692 25.3310217,39.5422615 L25.3310217,40.2498 C25.3310217,42.3738 23.8417223,43.1851846 22.0215439,43.1851846 C20.4496968,43.1851846 19.1674548,42.4783385 19.1674548,42.4783385 L18.4836841,44.0997231 C19.5189707,44.6217231 20.8012127,44.9761846 22.0635057,44.9761846 C24.7112255,44.9761846 27.3376204,43.6428 27.3376204,40.1660308 L27.3376204,32.2141846 C27.3376204,31.9434923 27.5247287,31.7981077 27.792321,31.7981077 L29.7280662,31.7981077 L29.7280662,30.0694154 L26.6751745,30.0694154 Z" id="Fill-3" fill="#c0d72f"/>
                    <path d="M35.4433987,39.1043769 C33.4780739,39.1043769 31.8656408,37.5231462 31.8656408,35.3153769 C31.8656408,33.1290692 33.4780739,31.5693 35.4433987,31.5693 C37.4286726,31.5693 39.0424815,33.1290692 39.0424815,35.3153769 C39.0424815,37.5231462 37.4286726,39.1043769 35.4433987,39.1043769 M35.4433987,29.8198385 C32.3203414,29.8198385 29.8170803,32.1314538 29.8170803,35.3153769 C29.8170803,38.5228385 32.3203414,40.8545308 35.4433987,40.8545308 C38.5664561,40.8545308 41.091042,38.5228385 41.091042,35.3153769 C41.091042,32.1314538 38.5664561,29.8198385 35.4433987,29.8198385" id="Fill-5" fill="#c0d72f"/>
                    <path d="M53.0641146,38.4181615 L53.0641146,33.8586231 C53.0641146,31.1738538 51.9469682,29.8197 49.4643439,29.8197 C47.1901529,29.8197 45.9478089,31.3192385 45.5336943,32.2344692 L45.4931083,32.2344692 C45.4931083,32.2344692 45.5336943,31.9644692 45.5336943,31.6314692 L45.5336943,31.2361615 C45.5336943,30.4649308 45.1003185,30.0696231 44.2108662,30.0696231 L41.1565987,30.0696231 L41.1565987,31.7976231 L43.1349936,31.7976231 C43.4252866,31.7976231 43.5896943,31.9437 43.5896943,32.2552385 L43.5896943,40.6037769 L45.596293,40.6037769 L45.596293,35.6703923 C45.596293,35.1490846 45.6382548,34.6700077 45.7820255,34.2532385 C46.1961401,32.7343154 47.4790701,31.6723154 49.092879,31.6723154 C50.7679108,31.6723154 51.0575159,32.8388538 51.0575159,34.3176231 L51.0575159,39.2710846 C51.0575159,40.2091615 51.4503057,40.6037769 52.3810318,40.6037769 L54.3663057,40.6037769 L54.3663057,38.8757769 L53.5188153,38.8757769 C53.2298981,38.8757769 53.0641146,38.7303923 53.0641146,38.4181615" id="Fill-7" fill="#c0d72f"/>
                    <path d="M62.3272127,35.8774615 C62.3272127,37.4393077 61.2313911,39.2303077 59.5350344,39.2303077 C58.2101427,39.2303077 57.5690217,38.3967692 57.5690217,37.5438462 C57.5690217,35.6081538 60.2992892,35.5243846 61.8092255,35.5243846 L62.3272127,35.5243846 L62.3272127,35.8774615 Z M64.7685631,38.8758462 C64.4782701,38.8758462 64.3124866,38.7297692 64.3124866,38.4182308 L64.3124866,33.9417692 C64.3124866,31.6100769 63.4037732,29.8197692 60.010372,29.8197692 C58.997786,29.8197692 56.3899643,30.069 56.3899643,31.7976923 L56.3899643,32.8389231 L58.2734293,32.8389231 L58.2734293,32.2338462 C58.2734293,31.5477692 59.4930726,31.4224615 59.989735,31.4224615 C61.6241809,31.4224615 62.3058879,32.0891538 62.3058879,33.9417692 L62.3058879,34.0463077 L61.8518752,34.0463077 C60.0936076,34.0463077 55.5431618,34.2533077 55.5431618,37.647 C55.5431618,39.7495385 57.3014293,40.8544615 59.0995949,40.8544615 C61.6028561,40.8544615 62.4310854,38.7706154 62.4310854,38.7706154 L62.4716713,38.7706154 C62.4716713,38.7706154 62.4310854,39.042 62.4310854,39.3964615 C62.4310854,40.1448462 62.8025503,40.6038462 63.7332764,40.6038462 L65.7625758,40.6038462 L65.7625758,38.8758462 L64.7685631,38.8758462 Z" id="Fill-9" fill="#c0d72f"/>
                    <path d="M69.7087032,27.2381538 C69.750665,26.3021538 69.3578752,25.9061538 68.4257732,25.9061538 L66.4404994,25.9061538 L66.4404994,27.6334615 L67.2879898,27.6334615 C67.5789707,27.6334615 67.7440662,27.7809231 67.7440662,28.0924615 L67.7371873,40.6093846 L69.7224611,40.6093846 L69.7087032,27.2381538 Z" id="Fill-11" fill="#c0d72f"/>
                    <path d="M8.24892994,34.1081308 C8.55917197,32.3600538 9.79945223,31.4219769 11.3300255,31.4219769 C12.6335924,31.4219769 13.729414,32.3600538 13.7920127,34.1081308 L8.24892994,34.1081308 Z M15.8612102,34.7533615 C15.8612102,32.0270538 14.2879873,29.8199769 11.3513503,29.8199769 C8.37206369,29.8199769 6.09718471,31.9841308 6.09718471,35.3362846 C6.09718471,38.4585923 8.35142675,40.8539769 11.6609045,40.8539769 C14.1435287,40.8539769 15.6954268,39.3135923 15.6954268,39.3135923 L14.8272994,37.8777462 C14.8272994,37.8777462 13.5650064,39.1045154 11.765465,39.1045154 C9.90332484,39.1045154 8.28951592,37.8348231 8.16638217,35.5869 L15.7986115,35.5869 C15.7986115,35.5869 15.8612102,35.0247462 15.8612102,34.7533615 Z" id="Fill-13" fill="#c0d72f"/>
                    <path d="M107.268283,5.82396923 C107.137582,5.79073846 85.9455057,0.0418153846 85.9455057,0.0418153846 C85.7721554,-0.000415384615 85.7013019,0.00166153846 85.5155694,0.0418153846 L75.6930726,2.60958462 C75.6105248,2.62896923 75.6002064,2.73904615 75.690321,2.76396923 L99.5239261,9.82550769 C99.6016586,9.85181538 99.6374293,9.90166154 99.6429325,9.97227692 L99.6429325,20.4212769 C99.6381172,20.4974308 99.6133529,20.5389692 99.5335567,20.5188923 C98.5553656,20.2149692 91.4039771,17.9905846 91.3193656,17.9628923 C91.2326904,17.9358923 91.1879771,17.9732769 91.1879771,18.0418154 C91.1879771,18.1276615 91.1783465,37.5157385 91.1783465,40.6338923 C91.1783465,40.7675077 91.3028561,40.8062769 91.3929707,40.6899692 C91.3929707,40.6899692 99.5225503,30.4860462 99.5652,30.4285846 C99.6202318,30.3552 99.6429325,30.3088154 99.6429325,30.1883538 L99.6429325,20.6109692 C99.6443083,20.5782 102.202601,18.2148923 107.317811,13.5210462 C107.39692,13.4400462 107.439569,13.3687385 107.441633,13.2261231 C107.442321,12.0997385 107.445073,6.11958462 107.441633,6.02543077 C107.441633,5.89112308 107.398983,5.85789231 107.268283,5.82396923 Z" id="Fill-15" fill="#c0d72f"/>
                </g>
            </g>
        </g>
    </g>
</svg>